<svg width="47" height="49" viewBox="0 0 47 49" fill="none" xmlns="http://www.w3.org/2000/svg">
<g opacity="0.5">
<path d="M19.5821 25.9484C20.3932 25.9484 21.0508 26.606 21.0508 27.4172V31.3338C21.0508 32.145 20.3932 32.8026 19.5821 32.8026C18.7709 32.8026 18.1133 32.145 18.1133 31.3338V27.4172C18.1133 26.606 18.7709 25.9484 19.5821 25.9484Z" fill="black"/>
<path d="M28.884 27.4172C28.884 26.606 28.2265 25.9484 27.4153 25.9484C26.6041 25.9484 25.9465 26.606 25.9465 27.4172V31.3338C25.9465 32.145 26.6041 32.8026 27.4153 32.8026C28.2265 32.8026 28.884 32.145 28.884 31.3338V27.4172Z" fill="black"/>
<path fill-rule="evenodd" clip-rule="evenodd" d="M18.8957 6.60986C19.3013 5.90737 19.0606 5.0091 18.3581 4.60351C17.6556 4.19793 16.7573 4.43862 16.3518 5.14111L12.4351 11.925C12.3764 12.0266 12.3313 12.1323 12.2991 12.2401H11.7487C8.77442 12.2401 6.36328 14.6512 6.36328 17.6255C6.36328 19.308 7.1348 20.8102 8.34334 21.7978L9.64943 30.7761L10.5243 34.8752C11.0485 37.3312 13.0534 39.1967 15.5408 39.5428C20.8206 40.2774 26.1768 40.2774 31.4567 39.5428C33.944 39.1967 35.949 37.3312 36.4731 34.8752L37.348 30.7761L38.6541 21.7978C39.8626 20.8102 40.6341 19.308 40.6341 17.6255C40.6341 14.6512 38.223 12.2401 35.2487 12.2401H34.6984C34.6662 12.1323 34.621 12.0266 34.5624 11.925L30.6457 5.14111C30.2401 4.43862 29.3419 4.19793 28.6394 4.60351C27.9369 5.0091 27.6962 5.90737 28.1018 6.60986L31.3524 12.2401H15.6451L18.8957 6.60986ZM35.5101 23.0047C35.4235 23.0088 35.3364 23.0109 35.2487 23.0109H11.7487C11.6611 23.0109 11.574 23.0088 11.4874 23.0047L12.5424 30.2576L13.3971 34.2621C13.6634 35.5098 14.682 36.4575 15.9456 36.6333C20.9569 37.3306 26.0406 37.3306 31.0519 36.6333C32.3155 36.4575 33.334 35.5098 33.6003 34.2621L34.455 30.2576L35.5101 23.0047ZM9.30078 17.6255C9.30078 16.2735 10.3968 15.1776 11.7487 15.1776H35.2487C36.6007 15.1776 37.6966 16.2735 37.6966 17.6255C37.6966 18.9774 36.6007 20.0734 35.2487 20.0734H11.7487C10.3968 20.0734 9.30078 18.9774 9.30078 17.6255Z" fill="black"/>
</g>
</svg>
