<svg width="41" height="44" viewBox="0 0 41 44" fill="none" xmlns="http://www.w3.org/2000/svg">
<g opacity="0.5">
<path fill-rule="evenodd" clip-rule="evenodd" d="M9.97875 16.8376C13.0321 23.4862 18.4654 28.7721 25.2198 31.6363L25.2411 31.6453L26.546 32.2269C28.2075 32.9672 30.1605 32.4414 31.2259 30.967L33.4029 27.9539C33.5359 27.7699 33.5016 27.514 33.3249 27.3714L29.5243 24.3053C29.3354 24.1529 29.0575 24.1884 28.913 24.3834L27.4338 26.3794C27.0746 26.8641 26.4258 27.0326 25.8762 26.7838C20.8256 24.4982 16.7671 20.4397 14.4815 15.3891C14.2327 14.8395 14.4012 14.1907 14.8859 13.8315L16.8819 12.3523C17.0769 12.2078 17.1124 11.93 16.96 11.741L13.8935 7.93991C13.751 7.76325 13.4951 7.72893 13.3111 7.86179L10.2817 10.0487C8.79754 11.1202 8.27486 13.0896 9.03244 14.756L9.97773 16.8353C9.97807 16.8361 9.97841 16.8368 9.97875 16.8376ZM24.2086 33.9908C16.8696 30.8755 10.9666 25.1304 7.64897 17.9046L7.64697 17.9002L6.69969 15.8165C5.43707 13.0392 6.30819 9.7568 8.78183 7.97106L11.8112 5.78412C13.0995 4.85409 14.8902 5.09429 15.8879 6.33094L18.9544 10.1321C20.0214 11.4546 19.7729 13.3994 18.4076 14.4111L17.2639 15.2587C19.1959 19.0075 22.2579 22.0694 26.0066 24.0014L26.8542 22.8577C27.866 21.4924 29.8107 21.2439 31.1333 22.3109L34.9339 25.377C36.1709 26.375 36.4108 28.1664 35.48 29.4547L33.3029 32.4677C31.5274 34.9251 28.2724 35.8014 25.5031 34.5676L24.2086 33.9908Z" fill="black"/>
</g>
</svg>
