<svg width="24" height="24" viewBox="0 0 24 24" fill="none" xmlns="http://www.w3.org/2000/svg">
<path d="M21.2001 21.0002L19.7001 6.4002C19.6001 5.9002 19.2 5.5002 18.8 5.5002H16.3C15.9 3.2002 14.1 1.7002 11.9 1.7002C9.70005 1.7002 7.90005 3.2002 7.50005 5.5002H5.30005C4.80005 5.5002 4.30005 5.9002 4.40005 6.4002L2.80005 21.1002C2.80005 21.4002 2.90005 21.6002 3.00005 21.9002C3.20005 22.1002 3.40005 22.3002 3.70005 22.3002H20.3C20.6 22.3002 20.8 22.1002 21 21.9002C21.2 21.6002 21.3001 21.3002 21.2001 21.0002ZM19.1 20.1002H4.80005L6.10005 7.60019H17.7L19.1 20.1002ZM9.50005 5.6002C9.80005 4.4002 10.6 3.7002 11.8 3.7002C13 3.7002 13.8 4.4002 14.1 5.6002H9.50005Z" fill="#666A86"/>
</svg>
