<svg width="43" height="46" viewBox="0 0 43 46" fill="none" xmlns="http://www.w3.org/2000/svg">
<g opacity="0.5">
<path d="M24.064 16.6565C24.064 15.9489 23.4904 15.3753 22.7828 15.3753H12.5328C11.8252 15.3753 11.2515 15.9489 11.2515 16.6565C11.2515 17.3641 11.8252 17.9378 12.5328 17.9378H22.7828C23.4904 17.9378 24.064 17.3641 24.064 16.6565Z" fill="black"/>
<path d="M22.3557 21.7815C22.3557 21.0739 21.782 20.5003 21.0744 20.5003H12.5328C11.8252 20.5003 11.2515 21.0739 11.2515 21.7815C11.2515 22.4891 11.8252 23.0628 12.5328 23.0628H21.0744C21.782 23.0628 22.3557 22.4891 22.3557 21.7815Z" fill="black"/>
<path d="M22.7828 25.6253C23.4904 25.6253 24.064 26.1989 24.064 26.9065C24.064 27.6141 23.4904 28.1878 22.7828 28.1878H12.5328C11.8252 28.1878 11.2515 27.6141 11.2515 26.9065C11.2515 26.1989 11.8252 25.6253 12.5328 25.6253H22.7828Z" fill="black"/>
<path fill-rule="evenodd" clip-rule="evenodd" d="M11.2514 37.1565H33.4597C36.0543 37.1565 38.1577 35.0532 38.1577 32.4586V23.0628C38.1577 22.3552 37.584 21.7815 36.8764 21.7815H31.3243V8.44491C31.3243 6.01326 28.5758 4.59882 26.5971 6.01218L26.2981 6.22578C24.9647 7.17816 23.1586 7.17497 21.819 6.21811C19.5916 4.62708 16.5779 4.62708 14.3505 6.21811C13.0109 7.17497 11.2048 7.17816 9.8715 6.22578L9.57245 6.01218C7.59374 4.59882 4.84521 6.01326 4.84521 8.44491V30.7503C4.84521 34.2884 7.71338 37.1565 11.2514 37.1565ZM15.8399 8.3033C17.1763 7.34869 18.9932 7.34869 20.3296 8.3033C22.5539 9.89209 25.5569 9.90423 27.7875 8.31097L28.0865 8.09737C28.3692 7.89547 28.7618 8.09753 28.7618 8.44491V32.4586C28.7618 33.2276 28.9466 33.9534 29.2741 34.594H11.2514C9.12861 34.594 7.40771 32.8731 7.40771 30.7503V8.44491C7.40771 8.09753 7.80036 7.89547 8.08303 8.09737L8.38207 8.31097C10.6126 9.90423 13.6156 9.89209 15.8399 8.3033ZM31.3243 32.4586V24.344H35.5952V32.4586C35.5952 33.638 34.6391 34.594 33.4597 34.594C32.2804 34.594 31.3243 33.638 31.3243 32.4586Z" fill="black"/>
</g>
</svg>
