<svg width="53" height="53" viewBox="0 0 53 53" fill="none" xmlns="http://www.w3.org/2000/svg">
<g clip-path="url(#clip0_702_159)">
<path d="M15.3862 15.5571C16.2915 14.6518 17.7592 14.6518 18.6644 15.5571L26.2975 23.1902L33.9305 15.5571C34.8358 14.6519 36.3035 14.6519 37.2087 15.5571C38.114 16.4624 38.114 17.9301 37.2087 18.8353L29.5757 26.4684L37.2087 34.1014C38.114 35.0066 38.114 36.4743 37.2087 37.3796C36.3035 38.2848 34.8358 38.2848 33.9305 37.3796L26.2975 29.7466L18.6645 37.3796C17.7592 38.2848 16.2915 38.2848 15.3863 37.3796C14.481 36.4743 14.481 35.0066 15.3863 34.1014L23.0193 26.4684L15.3862 18.8353C14.481 17.93 14.481 16.4623 15.3862 15.5571Z" fill="#C64A23"/>
<path fill-rule="evenodd" clip-rule="evenodd" d="M11.8228 1.02793C21.3656 -0.0386072 31.2293 -0.0386072 40.772 1.02793C46.4168 1.65883 50.9753 6.10526 51.6394 11.7828C52.7805 21.5399 52.7805 31.3968 51.6394 41.154C50.9753 46.8315 46.4168 51.2779 40.772 51.9088C31.2293 52.9754 21.3656 52.9754 11.8228 51.9088C6.17802 51.2779 1.61954 46.8315 0.955499 41.154C-0.185687 31.3968 -0.185687 21.5399 0.955499 11.7828C1.61954 6.10526 6.17803 1.65883 11.8228 1.02793ZM40.2571 5.63532C31.0566 4.60703 21.5383 4.60703 12.3378 5.63532C8.80068 6.03064 5.96943 8.82232 5.56018 12.3213C4.46085 21.7207 4.46085 31.2161 5.56018 40.6154C5.96943 44.1144 8.80068 46.9061 12.3378 47.3014C21.5383 48.3297 31.0565 48.3297 40.2571 47.3014C43.7942 46.9061 46.6254 44.1144 47.0347 40.6154C48.134 31.2161 48.134 21.7207 47.0347 12.3213C46.6254 8.82232 43.7942 6.03064 40.2571 5.63532Z" fill="#C64A23"/>
</g>
<defs>
<clipPath id="clip0_702_159">
<rect width="53" height="53" fill="white"/>
</clipPath>
</defs>
</svg>
