<svg width="375" height="81" viewBox="0 0 375 81" fill="none" xmlns="http://www.w3.org/2000/svg">
<ellipse cx="32.8082" cy="40.6481" rx="8.32641" ry="8.41406" transform="rotate(-1.0674 32.8082 40.6481)" stroke="#8ED081" stroke-width="1.5" stroke-linecap="round" stroke-linejoin="round"/>
<path d="M25.9575 45.4324C23.9837 48.5602 20.2149 50.0117 16.6805 49.005C13.1461 47.9984 10.6805 44.7714 10.6114 41.0617C10.5423 37.352 12.886 34.0354 16.3804 32.8978C19.8749 31.7602 23.6951 33.0702 25.784 36.1224" stroke="#8ED081" stroke-width="1.5" stroke-linecap="round" stroke-linejoin="round"/>
<path d="M32.4649 49.042C32.8203 49.9404 33.0075 50.8976 33.0172 51.8649C33.1038 56.5111 29.4467 60.347 24.849 60.4326C20.2512 60.5183 16.4538 56.8213 16.3673 52.1752C16.3488 51.1073 16.5364 50.0462 16.9198 49.0511" stroke="#8ED081" stroke-width="1.5" stroke-linecap="round" stroke-linejoin="round"/>
<path d="M39.8324 45.1739C41.9213 48.2261 45.7415 49.5361 49.236 48.3986C52.7304 47.261 55.0741 43.9444 55.005 40.2347C54.9359 36.5249 52.4703 33.2979 48.9359 32.2913C45.4015 31.2847 41.6327 32.7361 39.6589 35.864" stroke="#8ED081" stroke-width="1.5" stroke-linecap="round" stroke-linejoin="round"/>
<path d="M33.4639 49.0233C33.1423 49.9343 32.9908 50.8978 33.0172 51.8649C33.1037 56.511 36.9011 60.208 41.4989 60.1223C46.0966 60.0367 49.7537 56.2008 49.6671 51.5546C49.6458 50.4869 49.4188 49.4335 48.9986 48.4533" stroke="#8ED081" stroke-width="1.5" stroke-linecap="round" stroke-linejoin="round"/>
<path d="M40.9989 60.1036C41.3542 61.002 41.5415 61.9592 41.5511 62.9266C41.6377 67.5727 37.9807 71.4086 33.3829 71.4943C28.7852 71.5799 24.9878 67.8829 24.9012 63.2368C24.8748 62.2698 25.0263 61.3062 25.3479 60.3952" stroke="#8ED081" stroke-width="1.5" stroke-linecap="round" stroke-linejoin="round"/>
<path fill-rule="evenodd" clip-rule="evenodd" d="M35.0618 32.1906V32.1906C34.3838 32.2033 33.7285 31.9432 33.2401 31.4677C32.7516 30.9922 32.4701 30.3401 32.4573 29.655V29.655C32.3396 23.3381 37.3117 18.1229 43.5627 18.0064V18.0064C44.2407 17.9938 44.896 18.2538 45.3845 18.7293C45.8729 19.2049 46.1545 19.8569 46.1673 20.5421V20.5421C46.2238 23.5755 45.0855 26.507 43.0028 28.6915C40.9201 30.876 38.0637 32.1347 35.0618 32.1906Z" stroke="#8ED081" stroke-width="1.5" stroke-linecap="round" stroke-linejoin="round"/>
<path d="M32.5054 32.2382L32.4387 28.6567C32.3678 24.8529 29.2588 21.8261 25.4946 21.8962L24.1314 21.9216" stroke="#8ED081" stroke-width="1.5" stroke-linecap="round" stroke-linejoin="round"/>
<path fill-rule="evenodd" clip-rule="evenodd" d="M255.739 29.2443H251.685V25.1902C251.684 23.3474 252.416 21.5799 253.719 20.2764C255.021 18.9729 256.788 18.2403 258.631 18.2397H262.69V22.2938C262.688 26.132 259.577 29.2431 255.739 29.2443V29.2443Z" stroke="#8ED081" stroke-width="1.5" stroke-linecap="round" stroke-linejoin="round"/>
<path d="M251.685 29.2444V27.8688C251.685 24.0703 248.606 20.991 244.807 20.991H243.432" stroke="#8ED081" stroke-width="1.5" stroke-linecap="round" stroke-linejoin="round"/>
<ellipse cx="251" cy="48.5024" rx="17.8825" ry="19.258" stroke="#8ED081" stroke-width="1.5" stroke-linecap="round" stroke-linejoin="round"/>
<path d="M98.406 27.5941C99.1862 24.3347 101.198 21.5038 104.019 19.6946C104.664 19.2922 105.461 19.2167 106.171 19.4906C114.218 22.6144 119.032 30.8904 117.769 39.4292" stroke="#8ED081" stroke-width="1.5" stroke-linecap="round" stroke-linejoin="round"/>
<path d="M113.122 54.9719L111.43 60.3022C111.015 61.6114 109.617 62.3359 108.307 61.9203L103.566 60.4153C102.257 59.9997 101.532 58.6014 101.948 57.2922L103.64 51.9619" stroke="#8ED081" stroke-width="1.5" stroke-linecap="round" stroke-linejoin="round"/>
<path d="M102.8 51.3923C109.101 41.3365 120.914 36.1609 132.578 38.3453C133.306 38.5177 133.917 39.0104 134.24 39.6854C134.562 40.3605 134.561 41.1452 134.238 41.8198C129.885 51.8826 118.72 57.1288 108.195 54.0564C97.8177 50.4932 91.7221 39.755 93.9822 29.0178C94.1063 28.2871 94.5518 27.6505 95.1958 27.2836C95.8399 26.9167 96.6146 26.8582 97.3065 27.1241C104.082 29.9916 109.67 35.0933 113.142 41.5797" stroke="#8ED081" stroke-width="1.5" stroke-linecap="round" stroke-linejoin="round"/>
<path d="M116.193 28.8565C120.319 26.5223 125.18 25.853 129.782 26.9856C130.52 27.1712 131.128 27.6926 131.423 28.3937C132.682 31.5243 132.676 35.0214 131.406 38.1477" stroke="#8ED081" stroke-width="1.5" stroke-linecap="round" stroke-linejoin="round"/>
<path d="M108.975 20.8505C111.274 18.4443 114.238 16.7777 117.488 16.0635C119.331 15.5786 121.288 16.1999 122.514 17.6588C124.763 20.1275 126.228 23.2082 126.724 26.5104" stroke="#8ED081" stroke-width="1.5" stroke-linecap="round" stroke-linejoin="round"/>
<path d="M161.726 59.1183C159.144 59.1233 156.583 58.6645 154.173 57.7651C153.562 57.4813 152.859 57.4451 152.22 57.6643C149.919 58.5967 147.264 58.0913 145.5 56.3852C143.736 54.679 143.213 52.1107 144.177 49.8853C144.404 49.2672 144.366 48.5873 144.073 47.9961C140.973 40.3727 142.912 31.6943 148.991 25.9896C154.872 20.1291 163.811 18.2464 171.679 21.2109C172.292 21.4848 172.995 21.4938 173.615 21.2357C175.974 20.1308 178.799 20.592 180.652 22.385C182.506 24.1779 182.983 26.9094 181.841 29.1917C181.574 29.7909 181.583 30.4716 181.866 31.0637C183.918 36.1976 183.722 41.918 181.323 46.9092" stroke="#8ED081" stroke-width="1.5" stroke-linecap="round" stroke-linejoin="round"/>
<path fill-rule="evenodd" clip-rule="evenodd" d="M160.415 46.8782H185.842C187.246 46.8782 188.385 47.9793 188.385 49.3375V49.3375C188.385 57.4871 181.554 64.0937 173.128 64.0937V64.0937C164.702 64.0937 157.872 57.4871 157.872 49.3375V49.3375C157.872 47.9793 159.01 46.8782 160.415 46.8782Z" stroke="#8ED081" stroke-width="1.5" stroke-linecap="round" stroke-linejoin="round"/>
<path d="M354.753 18.4907H353.627C350.519 18.4907 348 21.0102 348 24.1181V25.2435" stroke="#8ED081" stroke-width="1.5" stroke-linecap="round" stroke-linejoin="round"/>
<path fill-rule="evenodd" clip-rule="evenodd" d="M348 61.2584V61.2584C344.142 61.2584 340.888 58.3858 340.41 54.5577L338.141 36.4112C337.788 33.5834 338.666 30.74 340.552 28.6035C342.438 26.4671 345.15 25.2434 348 25.2434V25.2434C350.85 25.2434 353.562 26.4671 355.448 28.6035C357.334 30.74 358.212 33.5834 357.859 36.4112L355.59 54.5577C355.112 58.3858 351.858 61.2584 348 61.2584Z" stroke="#8ED081" stroke-width="1.5" stroke-linecap="round" stroke-linejoin="round"/>
<path d="M342.283 58.6924C340.771 60.3246 338.482 60.9885 336.331 60.4179C334.181 59.8473 332.522 58.1357 332.018 55.9687L327.967 38.1188C327.815 37.4847 327.74 36.8349 327.742 36.183C327.75 33.1143 329.373 30.2766 332.013 28.712C334.653 27.1475 337.921 27.0868 340.617 28.5523" stroke="#8ED081" stroke-width="1.5" stroke-linecap="round" stroke-linejoin="round"/>
<path d="M355.383 28.5523C358.079 27.0868 361.347 27.1475 363.987 28.712C366.627 30.2766 368.25 33.1143 368.258 36.183C368.26 36.8349 368.185 37.4847 368.033 38.1188L363.982 55.9687C363.478 58.1357 361.819 59.8473 359.669 60.4179C357.518 60.9885 355.229 60.3246 353.717 58.6924" stroke="#8ED081" stroke-width="1.5" stroke-linecap="round" stroke-linejoin="round"/>
<path fill-rule="evenodd" clip-rule="evenodd" d="M222.303 42.1418V42.1418C220.491 39.1935 217.747 36.9338 214.506 35.7202V35.7202C212.345 34.91 210.515 33.4031 209.306 31.4375V31.4375C206.755 27.2737 201.312 25.9659 197.148 28.5164V28.5164C192.985 31.067 191.677 36.51 194.227 40.6738V40.6738C195.429 42.6443 195.94 44.9588 195.68 47.2521V47.2521C195.289 50.6907 196.055 54.1616 197.858 57.1157V57.1157C202.01 63.795 210.791 65.8439 217.47 61.6926V61.6926C224.203 57.628 226.367 48.8752 222.303 42.1418Z" stroke="#8ED081" stroke-width="1.5" stroke-linecap="round" stroke-linejoin="round"/>
<ellipse cx="209.911" cy="49.3514" rx="6.14292" ry="6.65483" transform="rotate(-31.4894 209.911 49.3514)" stroke="#8ED081" stroke-width="1.5" stroke-linecap="round" stroke-linejoin="round"/>
<path d="M291.621 48.7922C292.608 49.2373 293.505 49.8603 294.266 50.63C296.739 53.1028 297.411 56.4496 295.76 58.1006C294.109 59.7516 290.762 59.0792 288.29 56.6065C287.52 55.8452 286.897 54.9487 286.452 53.9619" stroke="#8ED081" stroke-width="1.5" stroke-linecap="round" stroke-linejoin="round"/>
<path d="M280.819 55.1125C278.343 52.636 279.012 47.9549 282.313 44.6536C285.615 41.3524 290.297 40.6845 292.772 43.1595V43.1595C294.01 44.3973 294.01 46.4041 292.772 47.6419L285.302 55.1125C284.707 55.7069 283.901 56.0408 283.06 56.0408C282.22 56.0408 281.414 55.7069 280.819 55.1125V55.1125" stroke="#8ED081" stroke-width="1.5" stroke-linecap="round" stroke-linejoin="round"/>
<path d="M309.046 36.6216C308.601 37.6084 307.978 38.5049 307.208 39.2661C304.735 41.7388 301.388 42.4111 299.737 40.7601C298.086 39.1092 298.759 35.7625 301.231 33.2898C301.993 32.5202 302.889 31.8972 303.876 31.4521" stroke="#8ED081" stroke-width="1.5" stroke-linecap="round" stroke-linejoin="round"/>
<path d="M302.726 25.8195C305.202 23.3431 309.883 24.0125 313.184 27.3136C316.486 30.6147 317.154 35.2971 314.678 37.772V37.772C313.441 39.0097 311.434 39.0097 310.196 37.772L302.726 30.3017C302.131 29.7074 301.797 28.9012 301.797 28.0606C301.797 27.2201 302.131 26.4139 302.726 25.8195V25.8195" stroke="#8ED081" stroke-width="1.5" stroke-linecap="round" stroke-linejoin="round"/>
<path d="M313.767 61.3716C313.21 62.6051 312.431 63.7256 311.469 64.6771C308.378 67.7681 304.195 68.6084 302.131 66.5447C300.067 64.481 300.908 60.2977 303.999 57.2068C304.95 56.2447 306.071 55.466 307.305 54.9097" stroke="#8ED081" stroke-width="1.5" stroke-linecap="round" stroke-linejoin="round"/>
<path d="M305.866 47.8688C308.962 44.7733 314.813 45.61 318.94 49.7364C323.066 53.8628 323.901 59.7159 320.808 62.8095V62.8095C319.26 64.3566 316.752 64.3566 315.205 62.8095L305.866 53.4716C305.123 52.7287 304.706 51.721 304.706 50.6702C304.706 49.6195 305.123 48.6118 305.866 47.8689V47.8689" stroke="#8ED081" stroke-width="1.5" stroke-linecap="round" stroke-linejoin="round"/>
<path fill-rule="evenodd" clip-rule="evenodd" d="M66.077 54.2812L69.3961 55.7458C70.0665 56.0412 70.8522 55.8226 71.2736 55.2233L73.6828 51.7975C74.4811 50.6621 75.9699 50.2481 77.2397 50.8083L77.8258 51.0669C80.1306 52.132 82.8679 51.3541 84.2682 49.2362C85.3949 47.4337 85.2505 45.1142 83.9091 43.4653C85.7646 42.9154 86.8384 40.9814 86.3242 39.1157C85.81 37.25 83.897 36.1393 82.0217 36.6176C82.8891 33.8584 81.5436 30.8881 78.8975 29.7205C76.2513 28.5528 73.1503 29.561 71.6968 32.0615C70.7861 30.3539 68.6761 29.6895 66.9514 30.5672C65.2266 31.4449 64.5218 33.5417 65.3662 35.283C63.0389 35.4159 61.1157 37.1467 60.7392 39.4472C60.4137 41.7612 61.6939 44.0026 63.8525 44.8978L64.4386 45.1564C65.709 45.7174 66.4064 47.0977 66.1042 48.4533L65.1974 52.5421C65.0388 53.2573 65.4069 53.9851 66.077 54.2812Z" stroke="#8ED081" stroke-width="1.5" stroke-linecap="round" stroke-linejoin="round"/>
<rect y="54" width="375" height="25" fill="#8ED081"/>
</svg>
