<svg width="512" height="512" viewBox="0 0 512 512" fill="none" xmlns="http://www.w3.org/2000/svg">
<g clip-path="url(#clip0_165_123)">
<path d="M488.5 338.833H23.5C14.663 338.833 7.5 331.67 7.5 322.833V222.3C7.5 213.463 14.663 206.3 23.5 206.3H488.5C497.337 206.3 504.5 213.463 504.5 222.3V322.833C504.5 331.67 497.337 338.833 488.5 338.833Z" stroke="black" stroke-width="15" stroke-miterlimit="10" stroke-linecap="round" stroke-linejoin="round"/>
<path d="M73.5579 275.225C75.0237 266.193 68.8903 257.683 59.8586 256.218C50.8269 254.752 42.3171 260.885 40.8513 269.917C39.3855 278.949 45.5189 287.458 54.5505 288.924C63.5822 290.39 72.0921 284.257 73.5579 275.225Z" stroke="black" stroke-width="15" stroke-miterlimit="10" stroke-linecap="round" stroke-linejoin="round"/>
<path d="M471.169 275.23C472.648 266.2 466.526 257.682 457.496 256.203C448.467 254.724 439.948 260.846 438.469 269.876C436.991 278.906 443.112 287.424 452.142 288.903C461.172 290.382 469.691 284.26 471.169 275.23Z" stroke="black" stroke-width="15" stroke-miterlimit="10" stroke-linecap="round" stroke-linejoin="round"/>
<path d="M488.5 471.367H23.5C14.663 471.367 7.5 464.204 7.5 455.367V354.833C7.5 345.997 14.663 338.833 23.5 338.833H488.5C497.337 338.833 504.5 345.997 504.5 354.833V455.366C504.5 464.203 497.337 471.367 488.5 471.367Z" stroke="black" stroke-width="15" stroke-miterlimit="10" stroke-linecap="round" stroke-linejoin="round"/>
<path d="M82.5549 504.5H40.0669C31.2299 504.5 24.0669 497.337 24.0669 488.5V471.367H487.934V488.5C487.934 497.337 480.771 504.5 471.934 504.5H117.555" stroke="black" stroke-width="15" stroke-miterlimit="10" stroke-linecap="round" stroke-linejoin="round"/>
<path d="M57.1998 421.667C66.3495 421.667 73.7668 414.25 73.7668 405.1C73.7668 395.95 66.3495 388.533 57.1998 388.533C48.0501 388.533 40.6328 395.95 40.6328 405.1C40.6328 414.25 48.0501 421.667 57.1998 421.667Z" stroke="black" stroke-width="15" stroke-miterlimit="10" stroke-linecap="round" stroke-linejoin="round"/>
<path d="M454.8 421.667C463.95 421.667 471.367 414.25 471.367 405.1C471.367 395.95 463.95 388.533 454.8 388.533C445.65 388.533 438.233 395.95 438.233 405.1C438.233 414.25 445.65 421.667 454.8 421.667Z" stroke="black" stroke-width="15" stroke-miterlimit="10" stroke-linecap="round" stroke-linejoin="round"/>
<path d="M313.983 247.717C307.617 247.717 204.382 247.717 198.016 247.717C184.292 247.717 173.166 258.843 173.166 272.567C173.166 286.291 184.292 297.417 198.016 297.417C204.382 297.417 307.617 297.417 313.983 297.417C327.707 297.417 338.833 286.291 338.833 272.567C338.833 258.842 327.708 247.717 313.983 247.717Z" stroke="black" stroke-width="15" stroke-miterlimit="10" stroke-linecap="round" stroke-linejoin="round"/>
<path d="M140.6 156.6H139.467C130.63 156.6 123.467 149.437 123.467 140.6V81.767C123.467 77.349 127.049 73.767 131.467 73.767H148.6C153.018 73.767 156.6 77.349 156.6 81.767V140.6C156.6 149.437 149.437 156.6 140.6 156.6Z" stroke="black" stroke-width="15" stroke-miterlimit="10" stroke-linecap="round" stroke-linejoin="round"/>
<path d="M123.467 126.308C115.105 120.521 105.19 116.811 94.6899 115.61C67.6039 112.513 41.6439 126.52 31.5059 149.7C23.5889 167.803 21.9989 187.556 26.7009 206.3" stroke="black" stroke-width="15" stroke-miterlimit="10" stroke-linecap="round" stroke-linejoin="round"/>
<path d="M233.775 247.718C220.208 265.808 203.621 281.325 184.816 293.623" stroke="black" stroke-width="15" stroke-miterlimit="10" stroke-linecap="round" stroke-linejoin="round"/>
<path d="M156.6 126.308C164.962 120.521 174.877 116.811 185.377 115.61C212.463 112.513 238.423 126.52 248.561 149.7C256.478 167.803 258.068 187.556 253.366 206.3" stroke="black" stroke-width="15" stroke-miterlimit="10" stroke-linecap="round" stroke-linejoin="round"/>
<path d="M434.709 117.339L435.69 117.906C443.343 122.324 453.128 119.702 457.546 112.05L486.963 61.099C489.172 57.273 487.861 52.38 484.035 50.171L469.197 41.604C465.371 39.395 460.478 40.706 458.269 44.532L428.852 95.483C424.435 103.135 427.057 112.92 434.709 117.339Z" stroke="black" stroke-width="15" stroke-miterlimit="10" stroke-linecap="round" stroke-linejoin="round"/>
<path d="M278.859 206.301C280.951 197.975 284.219 189.796 288.724 181.992C301.642 159.617 322.317 144.532 345.39 138.139C354.889 135.507 362.938 129.183 367.867 120.646L378.318 102.545L378.319 102.546C378.723 101.846 379.142 101.151 379.579 100.462C392.654 79.855 417.412 70.389 440.314 75.631" stroke="black" stroke-width="15" stroke-miterlimit="10" stroke-linecap="round" stroke-linejoin="round"/>
<path d="M304.91 297.417C290.803 283.806 281.543 266.35 277.845 247.718" stroke="black" stroke-width="15" stroke-miterlimit="10" stroke-linecap="round" stroke-linejoin="round"/>
<path d="M469.019 92.179C485.638 109.964 489.501 137.171 476.699 159.344L466.248 177.445C461.299 186.016 459.899 196.185 462.367 205.77C462.412 205.946 462.457 206.123 462.502 206.299" stroke="black" stroke-width="15" stroke-miterlimit="10" stroke-linecap="round" stroke-linejoin="round"/>
<path d="M261.002 297.417C244.018 290.866 228.835 280.692 216.4 267.841" stroke="black" stroke-width="15" stroke-miterlimit="10" stroke-linecap="round" stroke-linejoin="round"/>
<path d="M200.309 115.61C222.271 80.53 261.261 57.2 305.7 57.2C337.734 57.2 366.936 69.322 388.97 89.23" stroke="black" stroke-width="15" stroke-miterlimit="10" stroke-linecap="round" stroke-linejoin="round"/>
<path d="M70.5981 45.143C56.4221 66.967 53.0121 94.823 62.6941 119.987" stroke="black" stroke-width="15" stroke-miterlimit="10" stroke-linecap="round" stroke-linejoin="round"/>
<path d="M237.311 77.699C230.758 71.86 224.778 65.362 219.469 58.293L207.912 42.905C183.573 7.99599 136.146 -3.06301 98.6132 18.607C97.5462 19.223 96.4982 19.859 95.4692 20.515" stroke="black" stroke-width="15" stroke-miterlimit="10" stroke-linecap="round" stroke-linejoin="round"/>
</g>
<defs>
<clipPath id="clip0_165_123">
<rect width="512" height="512" fill="white"/>
</clipPath>
</defs>
</svg>
