<svg width="683" height="464" viewBox="0 0 683 464" fill="none" xmlns="http://www.w3.org/2000/svg">
<path d="M174.729 122.667H78.9635C74.2865 122.667 70.2292 125.906 69.2031 130.469L50.1927 215.026C49.526 217.99 50.2448 221.094 52.1406 223.469C54.0365 225.839 56.9115 227.219 59.9479 227.219H164.729V273.901C164.729 279.422 169.203 283.901 174.729 283.901C180.25 283.901 184.729 279.422 184.729 273.901V132.661C184.729 127.141 180.25 122.667 174.729 122.667ZM164.729 207.219H72.4479L86.9635 142.667H164.729V207.219Z" fill="black"/>
<path d="M673.88 9.11983C668.214 3.46879 660.682 0.348999 652.667 0.333374H234.734C226.708 0.348999 219.172 3.46879 213.521 9.11983C207.854 14.7865 204.734 22.3177 204.719 30.3334V82.6667H81.349C57.7917 82.6667 37.7344 98.7136 32.5677 121.693L17.4271 189.01C13.3802 206.995 11.3333 225.458 11.3333 243.885V335.906C4.64063 339.141 0 345.979 0 353.901V373.901C0 384.927 8.97396 393.901 20 393.901H65.375C70.3125 433.307 104.005 463.901 144.729 463.901C185.448 463.901 219.141 433.307 224.078 393.901H458.646C463.583 433.307 497.276 463.901 538 463.901C578.766 463.901 612.484 433.24 617.37 393.771C632.646 392.401 644.667 379.531 644.667 363.901V283.896H652.667C660.682 283.896 668.214 280.771 673.88 275.104C679.547 269.453 682.667 261.917 682.667 253.906V30.3334C682.667 22.3177 679.547 14.7865 673.88 9.11983ZM65.3594 373.901H20V353.901H70.5729C67.974 360.302 66.224 367.01 65.3594 373.901ZM144.729 443.901C111.641 443.901 84.7292 416.984 84.7292 383.901C84.7292 350.625 111.948 323.901 144.729 323.901C177.813 323.901 204.729 350.818 204.729 383.901C204.724 416.984 177.807 443.901 144.729 443.901ZM204.729 331.073C190.057 314.427 168.604 303.901 144.729 303.901C120.438 303.901 97.5052 315.031 82.3542 333.901H31.3333V243.885C31.3333 226.932 33.2187 209.943 36.9375 193.401L52.0781 126.083C55.1771 112.297 67.2135 102.667 81.349 102.667H204.719L204.729 331.073ZM538 443.901C504.917 443.901 478 416.984 478 383.901C478 350.818 504.917 323.901 538 323.901C571.083 323.901 598 350.818 598 383.901C598 416.984 571.083 443.901 538 443.901ZM662.667 253.906C662.651 259.401 658.172 263.896 652.667 263.906H254.734C249.214 263.906 244.734 268.385 244.734 273.906C244.734 279.412 249.214 283.896 254.734 283.896H624.667V363.901C624.667 368.5 621.542 372.375 617.307 373.536C612.203 334.307 578.599 303.901 538 303.901C497.276 303.901 463.583 334.495 458.646 373.901H224.724L224.719 30.3334C224.734 24.8386 229.224 20.349 234.734 20.3334H652.667C658.172 20.349 662.651 24.8386 662.667 30.3334V253.906Z" fill="black"/>
<path d="M171.531 367.104C166.172 368.401 162.865 373.813 164.172 379.172C164.531 380.719 164.734 382.307 164.734 383.906C164.708 394.906 155.734 403.88 144.734 403.906C133.719 403.88 124.745 394.906 124.719 383.906C124.745 372.896 133.719 363.922 144.734 363.906C150.24 363.906 154.719 359.412 154.719 353.906C154.719 348.401 150.255 343.922 144.76 343.906C144.745 343.906 144.734 343.896 144.734 343.896C122.604 343.922 104.734 361.776 104.734 383.906C104.734 405.974 122.562 423.88 144.734 423.906C166.859 423.88 184.719 406.005 184.719 383.906C184.719 380.719 184.349 377.547 183.615 374.479C182.302 369.083 176.911 365.813 171.531 367.104Z" fill="black"/>
<path d="M564.812 367.104C559.453 368.401 556.146 373.813 557.438 379.172C557.812 380.703 558 382.292 558 383.906C557.974 394.906 549 403.88 538 403.906C526.984 403.88 518.016 394.906 518 383.906C518.016 372.896 526.984 363.922 538 363.906C543.505 363.906 548 359.412 548 353.906C548 348.401 543.521 343.922 538.026 343.906C538.016 343.906 538.016 343.896 538 343.896C515.844 343.922 498 361.823 498 383.906C498 394.589 502.161 404.625 509.719 412.188C517.266 419.734 527.307 423.896 538 423.906C548.682 423.896 558.734 419.734 566.281 412.188C573.839 404.625 578 394.589 578 383.906C578 380.734 577.625 377.563 576.88 374.479C575.568 369.063 570.172 365.818 564.812 367.104Z" fill="black"/>
</svg>
