<svg width="512" height="512" viewBox="0 0 512 512" fill="none" xmlns="http://www.w3.org/2000/svg">
<path d="M489.502 218.492H482.006V195.988V115.988C482.006 89.796 460.697 68.487 434.506 68.487H228.527L89.564 28.783C89.524 28.772 89.483 28.766 89.443 28.755C89.402 28.744 89.363 28.728 89.322 28.718C89.238 28.697 89.155 28.687 89.072 28.669C88.943 28.642 88.814 28.614 88.685 28.593C88.568 28.574 88.453 28.562 88.336 28.548C88.2 28.532 88.065 28.518 87.93 28.51C87.82 28.504 87.711 28.503 87.601 28.501C87.461 28.499 87.322 28.498 87.183 28.504C87.08 28.508 86.977 28.518 86.875 28.526C86.732 28.538 86.589 28.551 86.448 28.572C86.352 28.586 86.257 28.604 86.162 28.621C86.016 28.647 85.872 28.675 85.729 28.71C85.64 28.732 85.553 28.757 85.465 28.782C85.319 28.824 85.175 28.867 85.031 28.917C84.95 28.946 84.87 28.977 84.789 29.009C84.644 29.065 84.5 29.124 84.359 29.189C84.284 29.224 84.211 29.262 84.137 29.299C83.996 29.37 83.857 29.442 83.721 29.523C83.65 29.564 83.582 29.608 83.512 29.652C83.378 29.736 83.246 29.822 83.118 29.915C83.051 29.963 82.986 30.015 82.92 30.066C82.797 30.161 82.675 30.258 82.558 30.361C82.492 30.419 82.429 30.48 82.365 30.54C82.255 30.644 82.146 30.748 82.042 30.858C81.977 30.927 81.916 30.999 81.853 31.071C81.758 31.18 81.664 31.29 81.575 31.405C81.511 31.488 81.451 31.573 81.39 31.658C81.311 31.769 81.233 31.881 81.161 31.996C81.099 32.094 81.042 32.196 80.985 32.297C80.922 32.408 80.859 32.52 80.802 32.635C80.746 32.747 80.696 32.862 80.645 32.977C80.595 33.09 80.546 33.203 80.502 33.319C80.456 33.441 80.416 33.566 80.375 33.692C80.349 33.773 80.317 33.849 80.293 33.931C80.281 33.972 80.276 34.012 80.265 34.052C80.254 34.093 80.238 34.132 80.228 34.173L71.652 68.485H47.505C21.366 68.485 0.094 89.708 0.008 115.828C0.007 115.882 0 115.933 0 115.986V375.986C0 380.126 3.37 383.486 7.5 383.486C11.64 383.486 15 380.126 15 375.986V150.579C23.504 158.575 34.938 163.489 47.505 163.489H434.506C434.515 163.489 434.523 163.488 434.532 163.488C452.44 163.502 467.006 178.076 467.006 195.989V248.493H384.494C384.489 248.493 384.485 248.494 384.48 248.494C384.263 248.494 384.047 248.507 383.832 248.526C383.593 248.547 383.357 248.581 383.125 248.624C383.09 248.63 383.056 248.633 383.021 248.64C382.825 248.679 382.633 248.731 382.442 248.785C382.4 248.797 382.357 248.805 382.316 248.818C382.146 248.87 381.981 248.932 381.816 248.995C381.753 249.019 381.689 249.039 381.626 249.065C381.488 249.122 381.355 249.189 381.222 249.254C381.134 249.296 381.045 249.335 380.959 249.38C380.855 249.435 380.757 249.498 380.657 249.558C380.546 249.624 380.433 249.688 380.325 249.76C380.252 249.808 380.185 249.863 380.115 249.914C379.987 250.006 379.858 250.097 379.736 250.198C379.683 250.242 379.634 250.291 379.583 250.336C379.452 250.45 379.321 250.563 379.197 250.687C379.124 250.76 379.058 250.84 378.989 250.916C378.892 251.021 378.792 251.124 378.7 251.236C378.545 251.425 378.4 251.621 378.264 251.824C378.261 251.827 378.258 251.831 378.256 251.835L338.258 311.836C337.979 312.254 337.743 312.697 337.556 313.158C337.485 313.33 337.428 313.505 337.371 313.679C337.354 313.732 337.332 313.783 337.316 313.836C337.26 314.021 337.217 314.208 337.176 314.394C337.165 314.443 337.151 314.491 337.141 314.54C337.108 314.708 337.086 314.877 337.065 315.046C337.056 315.118 337.042 315.19 337.035 315.263C337.021 315.402 337.018 315.54 337.013 315.679C337.008 315.785 336.999 315.891 336.999 315.998C336.999 316.101 337.008 316.204 337.012 316.307C337.017 316.449 337.021 316.592 337.035 316.734C337.042 316.803 337.055 316.872 337.064 316.941C337.086 317.113 337.108 317.285 337.142 317.456C337.151 317.503 337.165 317.549 337.176 317.596C337.217 317.784 337.261 317.972 337.317 318.159C337.333 318.212 337.355 318.263 337.372 318.317C337.429 318.491 337.486 318.666 337.557 318.838C337.745 319.298 337.981 319.742 338.261 320.161L378.258 380.153C378.26 380.156 378.262 380.158 378.264 380.161C378.425 380.4 378.601 380.628 378.787 380.847C378.848 380.919 378.913 380.986 378.976 381.054C379.103 381.193 379.235 381.327 379.372 381.456C379.453 381.532 379.533 381.606 379.615 381.677C379.761 381.802 379.912 381.919 380.067 382.033C380.137 382.084 380.204 382.14 380.275 382.188C380.5 382.341 380.733 382.482 380.974 382.61C381.035 382.642 381.098 382.669 381.159 382.699C381.351 382.795 381.547 382.884 381.748 382.963C381.826 382.994 381.904 383.022 381.983 383.05C382.174 383.118 382.368 383.178 382.566 383.231C382.647 383.252 382.727 383.274 382.809 383.294C383.012 383.341 383.218 383.377 383.427 383.407C383.503 383.418 383.578 383.433 383.654 383.442C383.912 383.471 384.174 383.487 384.44 383.489C384.461 383.489 384.482 383.493 384.504 383.493C384.508 383.493 384.513 383.492 384.518 383.492H467.009V436C467.009 453.922 452.429 468.502 434.509 468.502H47.509C29.589 468.502 15.009 453.922 15.009 436C15.009 435.961 15.004 435.923 15.003 435.884V405.99C15.003 401.86 11.643 398.49 7.503 398.49C3.373 398.49 0.003 401.86 0.003 405.99V436C0.003 436.078 0.012 436.154 0.015 436.231C0.14 462.317 21.395 483.502 47.509 483.502H434.509C460.698 483.502 482.005 462.197 482.009 436.008C482.009 436.007 482.009 436.006 482.009 436.004V383.492H489.505C501.909 383.492 512.001 373.4 512.001 360.996V240.988C511.998 228.584 501.906 218.492 489.502 218.492ZM92.9 45.336L225.239 83.149C225.245 83.151 225.252 83.152 225.258 83.154L313.954 108.496H77.114L92.9 45.336ZM467.005 161.394C458.502 153.4 447.07 148.487 434.506 148.487C434.493 148.487 434.481 148.489 434.467 148.489H47.505C29.584 148.489 15.004 133.909 15.004 115.988C15.004 98.067 29.584 83.487 47.505 83.487H67.903L61.653 108.496H47.507C43.365 108.496 40.007 111.854 40.007 115.996C40.007 120.138 43.365 123.496 47.507 123.496H67.483C67.493 123.496 67.504 123.498 67.515 123.498C67.523 123.498 67.531 123.496 67.538 123.496H367.479C367.489 123.496 367.498 123.498 367.507 123.498C367.515 123.498 367.523 123.496 367.531 123.496H424.497C428.639 123.496 431.997 120.138 431.997 115.996C431.997 111.854 428.639 108.496 424.497 108.496H368.554L281.025 83.487H434.505C452.425 83.487 467.005 98.067 467.005 115.988V161.394ZM496.998 360.992C496.998 365.125 493.635 368.488 489.502 368.488H388.508L353.509 315.994L388.508 263.492H489.502C489.607 263.492 489.709 263.48 489.813 263.476C492.329 263.441 494.745 262.993 496.998 262.195V360.992ZM489.502 248.484C489.45 248.484 489.399 248.491 489.347 248.492H482.006V233.492H489.502C493.635 233.492 496.998 236.855 496.998 240.988C496.998 245.121 493.635 248.484 489.502 248.484Z" fill="black"/>
<path d="M414.499 288.493C399.335 288.493 386.999 300.83 386.999 315.994C386.999 331.158 399.335 343.494 414.499 343.494C429.663 343.494 441.999 331.158 441.999 315.994C441.999 300.83 429.663 288.493 414.499 288.493ZM414.499 328.494C407.606 328.494 401.999 322.887 401.999 315.994C401.999 309.101 407.606 303.493 414.499 303.493C421.392 303.493 426.999 309.101 426.999 315.994C426.999 322.887 421.392 328.494 414.499 328.494Z" fill="black"/>
</svg>
