<svg width="201" height="23" viewBox="0 0 201 23" fill="none" xmlns="http://www.w3.org/2000/svg">
<path d="M4.59547 10.45H14.6755V14.35H4.59547V10.45ZM4.95547 22H0.0954689V0.999999H15.9655V4.9H4.95547V22ZM19.2556 22V0.999999H28.3456C30.2256 0.999999 31.8456 1.31 33.2056 1.93C34.5656 2.53 35.6156 3.4 36.3556 4.54C37.0956 5.68 37.4656 7.04 37.4656 8.62C37.4656 10.18 37.0956 11.53 36.3556 12.67C35.6156 13.79 34.5656 14.65 33.2056 15.25C31.8456 15.85 30.2256 16.15 28.3456 16.15H21.9556L24.1156 14.02V22H19.2556ZM32.6056 22L27.3556 14.38H32.5456L37.8556 22H32.6056ZM24.1156 14.56L21.9556 12.28H28.0756C29.5756 12.28 30.6956 11.96 31.4356 11.32C32.1756 10.66 32.5456 9.76 32.5456 8.62C32.5456 7.46 32.1756 6.56 31.4356 5.92C30.6956 5.28 29.5756 4.96 28.0756 4.96H21.9556L24.1156 2.65V14.56ZM50.6462 22.36C47.6662 22.36 45.3362 21.53 43.6562 19.87C41.9762 18.21 41.1362 15.84 41.1362 12.76V0.999999H45.9962V12.58C45.9962 14.58 46.4062 16.02 47.2262 16.9C48.0462 17.78 49.1962 18.22 50.6762 18.22C52.1562 18.22 53.3062 17.78 54.1262 16.9C54.9462 16.02 55.3562 14.58 55.3562 12.58V0.999999H60.1562V12.76C60.1562 15.84 59.3162 18.21 57.6362 19.87C55.9562 21.53 53.6262 22.36 50.6462 22.36ZM64.9588 22V0.999999H69.8188V22H64.9588ZM79.1525 22V4.96H72.4325V0.999999H90.7325V4.96H84.0125V22H79.1525ZM91.3041 15.43V11.68H99.7941V15.43H91.3041ZM100.343 22L109.703 0.999999H114.503L123.893 22H118.793L111.113 3.46H113.033L105.323 22H100.343ZM105.023 17.5L106.313 13.81H117.113L118.433 17.5H105.023ZM129.367 22V4.96H122.647V0.999999H140.947V4.96H134.227V22H129.367ZM143.562 22V0.999999H148.422V18.04H158.952V22H143.562ZM159.025 22L168.385 0.999999H173.185L182.575 22H177.475L169.795 3.46H171.715L164.005 22H159.025ZM163.705 17.5L164.995 13.81H175.795L177.115 17.5H163.705ZM191.654 22.36C189.974 22.36 188.364 22.14 186.824 21.7C185.284 21.24 184.044 20.65 183.104 19.93L184.754 16.27C185.654 16.91 186.714 17.44 187.934 17.86C189.174 18.26 190.424 18.46 191.684 18.46C192.644 18.46 193.414 18.37 193.994 18.19C194.594 17.99 195.034 17.72 195.314 17.38C195.594 17.04 195.734 16.65 195.734 16.21C195.734 15.65 195.514 15.21 195.074 14.89C194.634 14.55 194.054 14.28 193.334 14.08C192.614 13.86 191.814 13.66 190.934 13.48C190.074 13.28 189.204 13.04 188.324 12.76C187.464 12.48 186.674 12.12 185.954 11.68C185.234 11.24 184.644 10.66 184.184 9.94C183.744 9.22 183.524 8.3 183.524 7.18C183.524 5.98 183.844 4.89 184.484 3.91C185.144 2.91 186.124 2.12 187.424 1.54C188.744 0.939999 190.394 0.64 192.374 0.64C193.694 0.64 194.994 0.799999 196.274 1.12C197.554 1.42 198.684 1.88 199.664 2.5L198.164 6.19C197.184 5.63 196.204 5.22 195.224 4.96C194.244 4.68 193.284 4.54 192.344 4.54C191.404 4.54 190.634 4.65 190.034 4.87C189.434 5.09 189.004 5.38 188.744 5.74C188.484 6.08 188.354 6.48 188.354 6.94C188.354 7.48 188.574 7.92 189.014 8.26C189.454 8.58 190.034 8.84 190.754 9.04C191.474 9.24 192.264 9.44 193.124 9.64C194.004 9.84 194.874 10.07 195.734 10.33C196.614 10.59 197.414 10.94 198.134 11.38C198.854 11.82 199.434 12.4 199.874 13.12C200.334 13.84 200.564 14.75 200.564 15.85C200.564 17.03 200.234 18.11 199.574 19.09C198.914 20.07 197.924 20.86 196.604 21.46C195.304 22.06 193.654 22.36 191.654 22.36Z" fill="#FF7C00"/>
</svg>
