<svg width="29" height="41" viewBox="0 0 29 41" fill="none" xmlns="http://www.w3.org/2000/svg">
<path d="M6.06115 22.895C4.15449 22.895 2.70615 22.3633 1.71615 21.3C0.726152 20.2367 0.231152 18.715 0.231152 16.735V7.11C0.231152 5.13 0.726152 3.60833 1.71615 2.545C2.70615 1.48166 4.15449 0.949998 6.06115 0.949998C7.96782 0.949998 9.41615 1.48166 10.4062 2.545C11.3962 3.60833 11.8912 5.13 11.8912 7.11V16.735C11.8912 18.715 11.3962 20.2367 10.4062 21.3C9.41615 22.3633 7.96782 22.895 6.06115 22.895ZM20.0312 1.5H23.8812L8.97615 40H5.12615L20.0312 1.5ZM6.06115 19.43C7.38115 19.43 8.04115 18.6233 8.04115 17.01V6.835C8.04115 5.22167 7.38115 4.415 6.06115 4.415C4.74115 4.415 4.08115 5.22167 4.08115 6.835V17.01C4.08115 18.6233 4.74115 19.43 6.06115 19.43ZM22.9462 40.55C21.0395 40.55 19.5912 40.0183 18.6012 38.955C17.6112 37.8917 17.1162 36.37 17.1162 34.39V24.765C17.1162 22.785 17.6112 21.2633 18.6012 20.2C19.5912 19.1367 21.0395 18.605 22.9462 18.605C24.8528 18.605 26.3012 19.1367 27.2912 20.2C28.2812 21.2633 28.7762 22.785 28.7762 24.765V34.39C28.7762 36.37 28.2812 37.8917 27.2912 38.955C26.3012 40.0183 24.8528 40.55 22.9462 40.55ZM22.9462 37.085C24.2662 37.085 24.9262 36.2783 24.9262 34.665V24.49C24.9262 22.8767 24.2662 22.07 22.9462 22.07C21.6262 22.07 20.9662 22.8767 20.9662 24.49V34.665C20.9662 36.2783 21.6262 37.085 22.9462 37.085Z" fill="white"/>
</svg>
