<svg width="47" height="49" viewBox="0 0 47 49" fill="none" xmlns="http://www.w3.org/2000/svg">
<g opacity="0.5">
<path fill-rule="evenodd" clip-rule="evenodd" d="M16.1558 17.6248C16.1558 13.569 19.4437 10.2811 23.4996 10.2811C27.5554 10.2811 30.8433 13.569 30.8433 17.6248C30.8433 21.6807 27.5554 24.9686 23.4996 24.9686C19.4437 24.9686 16.1558 21.6807 16.1558 17.6248ZM23.4996 13.2186C21.0661 13.2186 19.0933 15.1913 19.0933 17.6248C19.0933 20.0584 21.0661 22.0311 23.4996 22.0311C25.9331 22.0311 27.9058 20.0584 27.9058 17.6248C27.9058 15.1913 25.9331 13.2186 23.4996 13.2186Z" fill="black"/>
<path fill-rule="evenodd" clip-rule="evenodd" d="M10.6851 15.9157C11.2212 9.41165 16.6564 4.4061 23.1825 4.4061H23.8169C30.343 4.4061 35.778 9.41165 36.3141 15.9157C36.6015 19.4021 35.5247 22.8639 33.3103 25.572L26.2705 34.1815C24.8384 35.9329 22.1609 35.9329 20.7289 34.1815L13.689 25.572C11.4747 22.8639 10.3978 19.4021 10.6851 15.9157ZM23.1825 7.3436C18.1851 7.3436 14.0232 11.1766 13.6127 16.157C13.3878 18.8849 14.2305 21.5936 15.9631 23.7125L23.0029 32.322C23.2597 32.636 23.7397 32.636 23.9964 32.322L31.0362 23.7125C32.7689 21.5936 33.6115 18.8849 33.3866 16.157C32.9761 11.1766 28.8142 7.3436 23.8169 7.3436H23.1825Z" fill="black"/>
<path d="M15.0216 31.99C15.3844 31.2645 15.0903 30.3822 14.3647 30.0195C13.6392 29.6567 12.757 29.9508 12.3942 30.6763L8.47757 38.5097C8.24992 38.965 8.27425 39.5057 8.54187 39.9387C8.80948 40.3717 9.28222 40.6353 9.79126 40.6353H37.2079C37.7169 40.6353 38.1897 40.3717 38.4573 39.9387C38.7249 39.5057 38.7492 38.965 38.5216 38.5097L34.6049 30.6763C34.2422 29.9508 33.3599 29.6567 32.6344 30.0195C31.9089 30.3822 31.6148 31.2645 31.9775 31.99L34.8314 37.6978H12.1677L15.0216 31.99Z" fill="black"/>
</g>
</svg>
