<svg width="212" height="211" viewBox="0 0 212 211" fill="none" xmlns="http://www.w3.org/2000/svg">
<path d="M211.295 124.514L181.36 34H209.04C210.162 34 211.039 33.043 210.902 31.929C209.87 23.502 202.688 17 193.982 17H175.693L175.506 16.438L175.327 17H157.826C148.411 17 133.146 0 123.731 0H87.89C78.475 0 63.21 17 53.795 17H35.15L34.963 16.438L34.784 17H18.04C9.33399 17 2.152 23.502 1.12 31.929C0.983995 33.043 1.85999 34 2.98199 34H29.362L0.703995 124.584L0.824997 124.857C1.05 134.378 16.591 142.18 35.739 142.18C54.939 142.18 70.514 134.513 70.657 124.956L70.751 124.485L40.817 34H96V194.947C67 195.981 41.765 201.25 36.896 208.885C36.112 210.114 37.366 211 38.824 211H173.2C174.658 211 174.9 210.114 174.116 208.885C169.246 201.25 147 195.981 114 194.947V34H169.906L141.248 124.584L141.369 124.857C141.594 134.378 157.135 142.18 176.283 142.18C195.483 142.18 211.058 134.278 211.201 124.722L211.295 124.514ZM12.553 124L35.201 52.786L58.875 124H12.553ZM153.096 124L175.743 52.786L199.417 124H153.096Z" fill="#A0A6A6"/>
</svg>
