<svg width="420" height="512" viewBox="0 0 420 512" fill="none" xmlns="http://www.w3.org/2000/svg">
<path d="M336.611 316.806C321.211 299.83 297.404 296.822 278.703 309.497L246.291 331.46C233.23 340.304 202.008 317.545 176.691 280.715C156.603 251.493 145.223 220.643 148.374 203.949C149.453 198.228 151.917 195.981 153.674 194.788L186.086 172.824C204.729 160.191 210.768 136.973 200.772 116.363L153.348 18.5939C149.234 10.1109 141.6 3.99991 131.842 1.38691C119.522 -1.91309 104.842 0.794915 93.532 8.45992L28.715 52.3819C8.27796 66.2319 -11.6 98.4999 9.78596 173.548C23.77 222.632 52.905 281.292 91.823 338.723C130.623 395.975 174.086 444.51 214.216 475.387C250.372 503.205 278.178 512.366 299.116 512.366C311.351 512.547 323.35 508.986 333.505 502.159L398.321 458.236C409.773 450.476 417.528 438.184 419.067 425.353C420.267 415.318 417.441 405.942 411.1 398.953L336.611 316.806ZM395.237 422.5C394.537 428.344 390.462 434.573 384.859 438.37L320.042 482.293C313.846 486.383 306.548 488.484 299.126 488.315C274.739 488.315 246.155 469.679 228.853 456.367C190.699 427.011 149.091 380.45 111.693 325.262C32.239 208.009 2.35596 99.2399 42.181 72.2519L107 28.3289C112.622 24.5219 119.933 23.0469 125.633 24.5719C128.633 25.3779 130.698 26.8909 131.755 29.0719L179.18 126.84C183.118 134.96 182.619 146.184 172.625 152.956L140.214 174.92C132.122 180.403 126.788 188.904 124.789 199.501C118.189 234.501 147.707 280.922 156.913 294.314C171.596 315.673 188.552 333.5 204.656 344.514C231.47 362.845 249.421 358.343 259.756 351.335L292.168 329.373C302.193 322.581 312.782 326.268 318.83 332.937L393.322 415.081C394.965 416.887 395.61 419.383 395.237 422.5Z" fill="white"/>
</svg>
