<svg width="36" height="36" viewBox="0 0 36 36" fill="none" xmlns="http://www.w3.org/2000/svg">
<path d="M1.69349 34.1095C1.66051 34.1947 1.64878 34.2866 1.65931 34.3774C1.66985 34.4681 1.70233 34.555 1.75395 34.6303C1.80557 34.7057 1.87478 34.7674 1.95559 34.81C2.0364 34.8527 2.12638 34.875 2.21774 34.875C2.26187 34.875 2.30585 34.8699 2.34881 34.8598L11.8056 32.5997C13.7707 33.4068 15.8754 33.8195 17.9998 33.8142C21.6578 33.8174 25.2114 32.5946 28.0928 30.341C30.9742 28.0875 33.0171 24.9332 33.8953 21.3822C34.7734 17.8311 34.4361 14.0882 32.9371 10.7514C31.4382 7.41464 28.8641 4.6765 25.6262 2.97448C22.3883 1.27245 18.6733 0.704751 15.0749 1.36207C11.4764 2.01938 8.20205 3.86379 5.77495 6.60062C3.34785 9.33744 1.90805 12.8088 1.68557 16.46C1.46309 20.1112 2.47077 23.7317 4.54762 26.743L1.69349 34.1095ZM2.78024 17.4696C2.78024 14.4594 3.67286 11.5169 5.3452 9.01406C7.01755 6.51121 9.39452 4.56048 12.1755 3.40855C14.9565 2.25662 18.0167 1.95522 20.969 2.54247C23.9213 3.12972 26.6332 4.57924 28.7617 6.70774C30.8902 8.83623 32.3397 11.5481 32.9269 14.5004C33.5142 17.4527 33.2128 20.5129 32.0608 23.2939C30.9089 26.0749 28.9582 28.4518 26.4553 30.1242C23.9525 31.7965 21.01 32.6892 17.9998 32.6892C15.9637 32.6946 13.9476 32.2875 12.0733 31.4922C11.9626 31.4452 11.8398 31.435 11.7229 31.4629L3.12956 33.516L5.70581 26.8684C5.73957 26.7811 5.75103 26.6868 5.73915 26.594C5.72726 26.5012 5.69241 26.4128 5.63774 26.3368C3.77537 23.7557 2.77536 20.6525 2.78024 17.4696Z" fill="white"/>
<path d="M10.6312 18.3589C12.1566 21.3866 14.6135 23.8447 17.6405 25.3716C18.4208 25.7625 19.2351 26.0817 20.0733 26.325C20.5548 26.4637 21.0533 26.534 21.5544 26.5337C22.9982 26.5314 24.3821 25.956 25.4019 24.9339L27.4916 22.8437C27.597 22.7382 27.6563 22.5952 27.6563 22.446C27.6563 22.2968 27.597 22.1538 27.4916 22.0483L23.3729 17.9297C23.2655 17.8281 23.1232 17.7714 22.9753 17.7714C22.8273 17.7714 22.685 17.8281 22.5776 17.9297L19.7791 20.7287C17.8475 19.7288 16.2734 18.1547 15.2735 16.2231L18.0725 13.4246C18.178 13.3191 18.2372 13.1761 18.2372 13.0269C18.2372 12.8778 18.178 12.7347 18.0725 12.6292L13.9539 8.51006C13.8464 8.40843 13.7041 8.35181 13.5562 8.35181C13.4083 8.35181 13.266 8.40843 13.1585 8.51006L11.0688 10.6003C10.382 11.2829 9.89047 12.1369 9.64535 13.0736C9.40023 14.0104 9.41045 14.9957 9.67494 15.9272C9.91902 16.7652 10.2391 17.5791 10.6312 18.3589ZM11.8687 11.3934L13.5562 9.70144L16.8794 13.0247L14.1952 15.7084C14.1139 15.7898 14.0596 15.8941 14.0395 16.0074C14.0193 16.1206 14.0344 16.2373 14.0827 16.3418C15.2329 18.7949 17.206 20.7678 19.6593 21.9178C19.7637 21.9659 19.8802 21.981 19.9934 21.9608C20.1065 21.9407 20.2108 21.8865 20.2921 21.8053L22.9758 19.1211L26.2985 22.4438L24.6065 24.1363C24.0656 24.681 23.3886 25.0709 22.646 25.2653C21.9034 25.4596 21.1222 25.4515 20.3838 25.2416C19.6116 25.0177 18.8614 24.7242 18.1423 24.3647C15.3329 22.9475 13.0522 20.6666 11.6353 17.8571C11.2754 17.1383 10.9819 16.3882 10.7583 15.6161C10.5485 14.8777 10.5405 14.0965 10.7349 13.3539C10.9294 12.6112 11.3194 11.9343 11.8642 11.3934H11.8687Z" fill="white"/>
</svg>
